<svg width="64" height="64" viewBox="0 0 64 64" fill="none" xmlns="http://www.w3.org/2000/svg">
<path d="M44 32C44 27.5817 40.4183 24 36 24C34.426 24 32.9622 24.464 31.7317 25.2683C30.8241 21.8488 27.728 19 24 19C20.134 19 17 22.134 17 26C17 26.2307 17.0121 26.4589 17.0359 26.6833C15.222 27.595 14 29.429 14 31.5C14 34.5376 16.4624 37 19.5 37H42.5C43.3284 37 44 36.3284 44 35.5V32Z" stroke="#3B82F6" stroke-width="3" fill="#3B82F6" fill-opacity="0.1"/>
<path d="M44 32C44 36.4183 40.4183 40 36 40C34.426 40 32.9622 39.536 31.7317 38.7317C30.8241 42.1512 27.728 45 24 45C20.134 45 17 41.866 17 38C17 37.7693 17.0121 37.5411 17.0359 37.3167C15.222 36.405 14 34.571 14 32.5C14 29.4624 16.4624 27 19.5 27H42.5C43.3284 27 44 27.6716 44 28.5V32Z" stroke="#3B82F6" stroke-width="3" fill="#3B82F6" fill-opacity="0.3"/>
</svg>