<svg width="64" height="64" viewBox="0 0 64 64" fill="none" xmlns="http://www.w3.org/2000/svg"><circle cx="32" cy="32" r="20" stroke="#3B82F6" stroke-width="3"/><path d="M32 12C37.3333 18.6667 38.6667 25.3333 32 32C25.3333 38.6667 18.6667 41.3333 12 40M32 12C26.6667 18.6667 25.3333 25.3333 32 32C38.6667 38.6667 45.3333 41.3333 52 40M12 24C18.6667 26.6667 25.3333 28 32 32C38.6667 36 45.3333 38.6667 52 40M12 24V40M52 24V40M12 24C18.6667 21.3333 25.3333 20 32 20C38.6667 20 45.3333 21.3333 52 24" stroke="#3B82F6" stroke-width="3" stroke-linecap="round" stroke-linejoin="round"/></svg>