<svg width="64" height="64" viewBox="0 0 64 64" fill="none" xmlns="http://www.w3.org/2000/svg"><rect width="64" height="64" rx="16" fill="#EFF6FF"/><path d="M22 42L30 34M40 24L32 32M32 32L22 42M32 32L40 24M32 32C37.5228 32 42 27.5228 42 22C42 16.4772 37.5228 12 32 12C26.4772 12 22 16.4772 22 22C22 27.5228 26.4772 32 32 32Z" stroke="#3B82F6" stroke-width="3" stroke-linecap="round" stroke-linejoin="round"/><path d="M42 32L36 36L38 42L32 40L26 46L24 38L18 36L24 30L22 24L30 26L32 22L36 28L42 32Z" stroke="#3B82F6" stroke-width="3" stroke-linecap="round" stroke-linejoin="round"/></svg>