<svg xmlns="http://www.w3.org/2000/svg" viewBox="0 0 24 24" fill="#FF9900"><path d="M12.44 14.1c.36.1.72.14 1.1.14.7 0 1.34-.15 1.9-.45.56-.3.99-.74 1.28-1.28.3-.54.44-1.16.44-1.84 0-.68-.15-1.3-.44-1.84-.3-.54-.72-.98-1.28-1.28-.56-.3-1.2-.45-1.9-.45-.38 0-.74.05-1.1.14-.38-.09-.76-.14-1.15-.14-.7 0-1.34.15-1.9.45-.56.3-.99.74-1.28 1.28-.3.54-.44 1.16-.44 1.84 0 .68.15 1.3.44 1.84.3.54.72.98 1.28 1.28.56.3 1.2.45 1.9.45.38 0 .76-.05 1.15-.14zM12 1.63C6.82 1.63 2.55 5.9 2.55 11.07c0 3.32 1.74 6.25 4.36 7.98.2.13.43.1.6-.1l.9-1.04c.16-.18.15-.46-.02-.63-.3-.3-.58-.63-.83-.98-.32-.45-.58-.94-.76-1.46-.1-.28.02-.6.28-.75l1.08-.63c.26-.15.58-.1.78.13.4.45.85.86 1.34 1.2.4.28.9.36 1.33.2l1.2-.43c.4-.15.7-.48.8-.9.07-.3.1-.6.1-.9v-1.1c0-.44.2-.84.54-1.08.3-.2.66-.27 1-.2l1.17.2c.45.08.8.44.8.9v.76c0 .3.04.6.1.9.1.4.38.73.76.88l1.1.43c.45.16.96.08 1.38-.2.5-.34.96-.75 1.38-1.2.2-.23.53-.28.8-.13l1.08.63c.26.15.38.47.28.75-.18.52-.44 1.01-.76 1.46-.25.35-.53.68-.83.98-.17.17-.18.45-.02.63l.9 1.04c.17.2.4.23.6.1 2.62-1.73 4.36-4.66 4.36-7.98C21.45 5.9 17.18 1.63 12 1.63z"/></svg>