<svg xmlns="http://www.w3.org/2000/svg" viewBox="0 0 24 24" fill="#2496ED"><path d="M23.77 11.78c-.2-.14-.4-.14-.6-.14h-3.36c-.2 0-.37-.03-.53-.06-.15-.03-.3-.1-.4-.15-.1-.06-.2-.13-.26-.23-.07-.1-.1-.2-.13-.3l-1.03-2.07c-.1-.2-.17-.4-.23-.6-.06-.2-.1-.4-.1-.6 0-.2.03-.4.1-.6s.13-.37.23-.53c.1-.16.2-.3.3-.4.1-.1.2-.2.3-.26.1-.06.2-.1.3-.13.1-.03.2-.03.3-.03h.4c.2 0 .4 0 .6.03.2.03.37.1.53.16.16.06.3.13.4.23.1.1.2.2.26.3l1 2.05c.1.2.16.4.2.6.06.2.1.4.1.6 0 .2-.03.4-.1.6-.06.2-.13.37-.23-.53-.1.16-.2.3-.3.4-.1.1-.2.2-.3.26-.1.06-.2.1-.3.13-.1.03-.2.03-.3.03h-.37c-.17 0-.33-.03-.5-.06-.15-.03-.3-.1-.4-.15-.1-.06-.2-.13-.26-.23-.06-.1-.1-.2-.1-.3l-.4-1.24c-.03-.1-.03-.2 0-.3 0-.1.03-.17.06-.23.03-.06.1-.1.16-.13.06-.03.13-.03.2-.03h.2c.07 0 .13.01.2.03.06.02.1.06.13.1.03.04.03.1.03.15 0 .04 0 .1-.03.13l-.26.8v.03h.2c.07 0 .13.01.2.03.06.02.1.06.13.1.03.04.03.1.03.15 0 .04 0 .1-.03.13l-1.02 2.07c-.1.2-.17.4-.23.6-.06.2-.1.4-.1.6 0 .2.03.4.1.6s.13.37.23.53c.1.16.2.3.3.4.1.1.2.2.3.26.1.06.2.1.3.13.1.03.2.03.3.03h.4c.2 0 .4 0 .6.03.2.03.37.1.53.16.16.06.3.13.4.23.1.1.2.2.26.3l1 2.05c.1.2.16.4.2.6.06.2.1.4.1.6 0 .2-.03.4-.1.6-.06.2-.13.37-.23.53-.1.16-.2.3-.3.4-.1.1-.2.2-.3.26-.1.06-.2.1-.3.13-.1.03-.2.03-.3.03h-.37c-.17 0-.33-.03-.5-.06-.15-.03-.3-.1-.4-.15-.1-.06-.2-.13-.26-.23-.06-.1-.1-.2-.1-.3l-.4-1.24c-.03-.1-.03-.2 0-.3 0-.1.03-.17.06-.23.03-.06.1-.1.16-.13.06-.03.13-.03.2-.03h.2c.07 0 .13.01.2.03.06.02.1.06.13.1.03.04.03.1.03.15 0 .04 0 .1-.03.13l-.26.8v.03h.2c.07 0 .13.01.2.03.06.02.1.06.13.1.03.04.03.1.03.15 0 .04 0 .1-.03.13l-1.02 2.07c-.1.2-.17.4-.23.6-.06.2-.1.4-.1.6 0 .2.03.4.1.6s.13.37.23.53c.1.16.2.3.3.4.1.1.2.2.3.26.1.06.2.1.3.13.1.03.2.03.3.03h.4c.2 0 .4 0 .6.03.2.03.37.1.53.16.16.06.3.13.4.23.1.1.2.2.26.3l1 2.05c.1.2.16.4.2.6.06.2.1.4.1.6 0 .2-.03.4-.1.6-.06.2-.13.37-.23.53-.1.16-.2.3-.3.4-.1.1-.2.2-.3.26-.1.06-.2.1-.3.13-.1.03-.2.03-.3.03h-3.36c-.2 0-.4 0-.6-.14-.2-.13-.3-.3-.3-.6V1.3c0-.3.1-.47.3-.6.2-.14.4-.14.6-.14h3.36c.2 0 .4 0 .6.14.2.13.3.3.3.6v9.54zM9.05 6.4c0-.2.03-.4.1-.6.06-.2.13-.37.23-.53.1-.16.2-.3.3-.4.1-.1.2-.2.3-.26.1-.06.2-.1.3-.13.1-.03.2-.03.3-.03h.4c.2 0 .4 0 .6.03.2.03.37.1.53.16.16.06.3.13.4.23.1.1.2.2.26.3l1 2.05c.1.2.16.4.2.6.06.2.1.4.1.6 0 .2-.03.4-.1.6-.06.2-.13.37-.23.53-.1.16-.2.3-.3.4-.1.1-.2.2-.3.26-.1.06-.2.1-.3.13-.1.03-.2.03-.3.03h-.4c-.2 0-.4 0-.6-.03-.2-.03-.37-.1-.53-.16-.16-.06-.3-.13-.4-.23-.1-.1-.2-.2-.26-.3l-1-2.05c-.1-.2-.16-.4-.2-.6-.06-.2-.1-.4-.1-.6zm6.1 0c0-.2.03-.4.1-.6.06-.2.13-.37.23-.53.1-.16.2-.3.3-.4.1-.1.2-.2.3-.26.1-.06.2-.1.3-.13.1-.03.2-.03.3-.03h.4c.2 0 .4 0 .6.03.2.03.37.1.53.16.16.06.3.13.4.23.1.1.2.2.26.3l1 2.05c.1.2.16.4.2.6.06.2.1.4.1.6 0 .2-.03.4-.1.6-.06.2-.13.37-.23-.53-.1.16-.2.3-.3.4-.1.1-.2.2-.3.26-.1.06-.2.1-.3.13-.1.03-.2.03-.3.03h-.4c-.2 0-.4 0-.6-.03-.2-.03-.37-.1-.53-.16-.16-.06-.3-.13-.4-.23-.1-.1-.2-.2-.26-.3l-1-2.05c-.1-.2-.16-.4-.2-.6-.06-.2-.1-.4-.1-.6zm-3.04 3.03c0-.2.03-.4.1-.6.06-.2.13-.37.23-.53.1-.16.2-.3.3-.4.1-.1.2-.2.3-.26.1-.06.2-.1.3-.13.1-.03.2-.03.3-.03h.4c.2 0 .4 0 .6.03.2.03.37.1.53.16.16.06.3.13.4.23.1.1.2.2.26.3l1 2.05c.1.2.16.4.2.6.06.2.1.4.1.6 0 .2-.03.4-.1.6-.06.2-.13.37-.23.53-.1.16-.2.3-.3.4-.1.1-.2.2-.3.26-.1.06-.2.1-.3.13-.1.03-.2.03-.3.03h-.4c-.2 0-.4 0-.6-.03-.2-.03-.37-.1-.53-.16-.16-.06-.3-.13-.4-.23-.1-.1-.2-.2-.26-.3l-1-2.05c-.1-.2-.16-.4-.2-.6-.06-.2-.1-.4-.1-.6z"/></svg>