<svg xmlns="http://www.w3.org/2000/svg" viewBox="0 0 24 24" fill="#4DB33D"><path d="M12 0C5.37 0 0 5.37 0 12s5.37 12 12 12 12-5.37 12-12S18.63 0 12 0zm0 21.6c-5.3 0-9.6-4.3-9.6-9.6S6.7 2.4 12 2.4s9.6 4.3 9.6 9.6-4.3 9.6-9.6 9.6zm0-3.37c-3.1 0-5.64-2.54-5.64-5.63s2.54-5.63 5.64-5.63 5.64 2.54 5.64 5.63-2.54 5.63-5.64 5.63zm3.48-5.63c0-1.07-.27-2.07-.75-2.93-.48-.86-1.15-1.54-1.95-1.98-.8-.44-1.74-.68-2.73-.68-1.93 0-3.6.78-4.87 2.05-1.27 1.27-2.05 2.94-2.05 4.87s.78 3.6 2.05 4.87c1.27 1.27 2.94 2.05 4.87 2.05s3.6-.78 4.87-2.05c.1-.1.18-.2.25-.3.2-.28.38-.58.53-.9.1-.2.18-.4.25-.6.28-.75.43-1.57.43-2.43z"/></svg>